<svg width="68" height="24" viewBox="0 0 68 24" fill="none" xmlns="http://www.w3.org/2000/svg">
<g clip-path="url(#clip0)">
<path d="M0 14.7734H1.40066L4.60229 22.201L7.55383 14.7734H8.99214L8.95449 23.9999H7.9038V16.9416L5.05253 23.9999H4.15205L1.10063 16.9416V23.9999H0V14.7734Z" fill="#292929"/>
<path d="M12.981 14.7734C14.9652 14.7734 15.9575 15.5422 15.9575 17.0801V23.9999H14.9571V20.9551H11.0052V23.9999H10.0049V17.1262C10.0045 15.5576 10.9968 14.7734 12.981 14.7734ZM10.9553 20.0328H14.9571V17.2187C14.9571 16.1732 14.2899 15.6501 12.956 15.6501C11.6218 15.6501 10.9549 16.1575 10.9549 17.1723V20.0328H10.9553Z" fill="#292929"/>
<path d="M16.959 23.9999V14.7734H19.9355C21.0027 14.7734 21.7718 14.9868 22.2428 15.4135C22.7138 15.8402 22.9493 16.5456 22.9493 17.5301C22.9493 18.3528 22.5367 18.9873 21.7111 19.4329C22.5367 19.8482 22.9493 20.4249 22.9493 21.1629C22.9493 21.4782 22.9431 21.951 22.9304 22.5816C22.9178 23.2122 22.9116 23.685 22.9116 24.0003H21.9109V21.5089C21.9109 20.4016 21.2774 19.8482 20.01 19.8482H17.909V23.9999H16.959ZM21.9112 17.2183C21.9112 16.1728 21.244 15.6497 19.9101 15.6497H17.909V18.9251H20.06C21.2943 18.9255 21.9112 18.3563 21.9112 17.2183Z" fill="#292929"/>
<path d="M26.7655 17.9182L30.215 24.0003H29.0644L25.9807 18.5862L24.9123 19.5715V23.9999H23.9619V14.7734H24.9373L24.9123 18.3717L28.8143 14.7734H30.165L26.7655 17.9182Z" fill="#292929"/>
<path d="M36.2311 19.8482H32.1789V23.0776H37.1815V24.0003H31.2285V14.7734H37.1815V15.6501H32.1789V18.9255H36.2311V19.8482Z" fill="#292929"/>
<path d="M40.7446 23.9999V15.6501H38.1934V14.7734H44.1464V15.6501H41.745V23.9999H40.7446Z" fill="#292929"/>
<path d="M45.1592 14.7734H46.1346L46.1096 23.9999H45.1592V14.7734Z" fill="#292929"/>
<path d="M51.2995 23.9999L48.2481 16.9416V23.9999H47.1475V14.7734H48.5481L51.7498 22.201V14.7734H52.8504V23.9999H51.2995Z" fill="#292929"/>
<path d="M58.8169 21.4164V20.4938H56.8158V19.525H59.8672V21.555C59.8672 23.1851 58.8584 23.9999 56.8408 23.9999C54.8566 23.9999 53.8643 23.2004 53.8643 21.6011V17.1723C53.8643 15.5733 54.8566 14.7734 56.8408 14.7734C58.825 14.7734 59.8173 15.5576 59.8173 17.1262V18.2335H58.8165C58.8165 17.2801 58.7416 16.6613 58.5914 16.3767C58.3329 15.8925 57.7409 15.6501 56.8154 15.6501C55.4812 15.6501 54.8143 16.1728 54.8143 17.2187V21.3704C54.8143 22.5084 55.4812 23.0772 56.8154 23.0772C58.1496 23.0772 58.8169 22.5237 58.8169 21.4164Z" fill="#292929"/>
<path d="M5.00259 5.09316H0.950423V9.24524H0V0.0187988H5.95301V0.895427H0.950423V4.17087H5.00259V5.09316Z" fill="#292929"/>
<path d="M9.94233 0C11.9265 0 12.9188 0.768771 12.9188 2.30671V9.22644H11.9185V6.18166H7.96618V9.22644H6.96582V2.35276C6.96582 0.784123 7.95773 0 9.94233 0ZM7.91624 5.25898H11.9181V2.44487C11.9181 1.39938 11.2508 0.876234 9.91697 0.876234C8.58277 0.876234 7.91586 1.38363 7.91586 2.39843L7.91624 5.25898Z" fill="#292929"/>
<path d="M18.8722 6.643C18.8722 6.19701 18.4427 5.78212 17.5841 5.39754C16.3836 4.85157 15.5914 4.49414 15.208 4.32488C14.349 3.80213 13.9199 3.16011 13.9199 2.39882C13.9195 0.799869 14.9118 0 16.896 0C18.8803 0 19.8725 0.768771 19.8725 2.30671V3.09083H18.8722C18.8722 2.29884 18.7639 1.75286 18.5472 1.4533C18.2637 1.06872 17.7051 0.876628 16.8715 0.876628C15.5373 0.876628 14.8703 1.39938 14.8703 2.44527C14.8703 2.94519 15.3037 3.36795 16.1711 3.71396C17.7135 4.32921 18.5138 4.65593 18.5722 4.69411C19.4392 5.18616 19.8729 5.88211 19.8729 6.78156C19.8729 8.41161 18.8806 9.22644 16.8964 9.22644C14.9118 9.22644 13.9199 8.42696 13.9199 6.82762V5.85888H14.8703C14.8703 6.73551 14.9618 7.32754 15.1454 7.63497C15.412 8.08096 15.9875 8.30376 16.8715 8.30376C18.2049 8.30376 18.8722 7.7503 18.8722 6.643Z" fill="#292929"/>
<path d="M20.8809 0.0234375H21.8313V4.17551H25.8331V0.0234375H26.8339V9.24988H25.7832V5.0978H21.8313V9.24988H20.8809V0.0234375Z" fill="#292929"/>
<path d="M27.8467 0.0234375H28.8221L28.7971 9.24988H27.8467V0.0234375Z" fill="#292929"/>
<path d="M32.8124 0.0234375C34.7967 0.0234375 35.7889 0.792209 35.7889 2.33015V6.805C35.7889 8.43505 34.7967 9.24988 32.8124 9.24988C30.8282 9.24988 29.8359 8.4504 29.8359 6.85106V2.42226C29.8359 0.822913 30.8278 0.0234375 32.8124 0.0234375ZM34.7882 6.66644V2.46831C34.7882 1.42281 34.1209 0.899672 32.7871 0.899672C31.4529 0.899672 30.786 1.42242 30.786 2.46831V6.62039C30.786 7.75839 31.4529 8.32719 32.7871 8.32719C34.1213 8.32719 34.7882 7.77374 34.7882 6.66644Z" fill="#292929"/>
<path d="M40.9161 9.24988L37.8643 2.19159V9.24988H36.7637V0.0234375H38.1643L41.366 7.45096V0.0234375H42.4666V9.24988H40.9161Z" fill="#292929"/>
<path d="M57.3784 9.27289H56.2279L53.7266 0.0460554H54.8222L56.8325 7.41296L58.9823 0H60.2301L57.3784 9.27289Z" fill="#292929"/>
<path d="M66.2003 6.68939C66.2003 6.2434 65.7708 5.82851 64.9122 5.44393C63.7117 4.89795 62.9195 4.54053 62.5361 4.37127C61.6772 3.84852 61.248 3.2065 61.248 2.44521C61.248 0.846256 62.24 0.0463867 64.2245 0.0463867C66.2087 0.0463867 67.201 0.815158 67.201 2.3531V3.13722H66.2007C66.2007 2.34522 66.0923 1.79925 65.8757 1.49969C65.5922 1.11511 65.0336 0.923015 64.2 0.923015C62.8658 0.923015 62.1989 1.44576 62.1989 2.49165C62.1989 2.99157 62.6322 3.41434 63.4996 3.76034C65.042 4.3756 65.8423 4.70232 65.9006 4.7405C66.7677 5.23254 67.2014 5.92849 67.2014 6.82795C67.2014 8.458 66.2091 9.27283 64.2249 9.27283C62.2403 9.27283 61.2484 8.47335 61.2484 6.87401V5.90527H62.1989C62.1989 6.7819 62.2903 7.37393 62.4739 7.68135C62.7405 8.12735 63.316 8.35014 64.2 8.35014C65.533 8.35014 66.2003 7.7963 66.2003 6.68939Z" fill="#292929"/>
<path d="M65.8242 23.9998V22.9158H67.1999V23.9998H65.8242Z" fill="#292929"/>
</g>
<defs>
<clipPath id="clip0">
<rect width="67.2" height="24" fill="white"/>
</clipPath>
</defs>
</svg>
