<svg width="18" height="18" viewBox="0 0 15 15" fill="none" xmlns="http://www.w3.org/2000/svg">
<style type="text/css">
	.wdcst0{fill:none;stroke:#000000;stroke-linecap:round;stroke-miterlimit:10;}
</style>
<path class="wdcst0" d="M7.16925 13.4057L7.46154 13.6163L7.75383 13.4057C8.17886 13.0994 8.60343 12.7751 9.02756 12.4329C9.47746 12.0713 10.0399 11.5672 10.712 10.9256L10.712 10.9256L10.7154 10.9223C11.3971 10.2591 11.9894 9.60418 12.4902 8.95717C13.0006 8.29774 13.4456 7.54809 13.8271 6.71111L13.8282 6.70857C14.2182 5.84009 14.4231 4.99424 14.4231 4.17594C14.4231 3.08067 14.109 2.16234 13.4225 1.49199C12.7376 0.810965 11.8044 0.5 10.6923 0.5C9.82991 0.5 9.04617 0.731427 8.35735 1.20016L8.35732 1.20013L8.35193 1.2039C7.99351 1.45477 7.69495 1.7499 7.45881 2.08768C7.21749 1.74841 6.91124 1.45275 6.54341 1.20202C5.86907 0.730863 5.09195 0.5 4.23077 0.5C3.1187 0.5 2.18547 0.810957 1.50058 1.49196C0.814075 2.16232 0.5 3.08065 0.5 4.17594C0.5 4.99424 0.704887 5.84009 1.09486 6.70857L1.09485 6.70857L1.096 6.71111C1.47744 7.54809 1.92245 8.29774 2.43287 8.95717C2.93367 9.60418 3.52593 10.2591 4.20772 10.9223L4.20771 10.9223L4.21109 10.9256C4.88225 11.5663 5.43395 12.0681 5.86361 12.4273L5.87057 12.4331L5.87774 12.4386C6.31621 12.7789 6.74672 13.1012 7.16925 13.4057Z"></path>
</svg>